<mxfile host="app.diagrams.net" modified="2021-01-06T12:46:55.637Z" agent="5.0 (X11; Linux x86_64) AppleWebKit/537.36 (KHTML, like Gecko) Chrome/87.0.4280.66 Safari/537.36" etag="LGkMdqCpxQiGG1ixOSQB" version="14.1.8" type="github" pages="2">
  <diagram name="sign_login_001" id="DCHymZ5U_CA5fr31je_Z">
    <mxGraphModel dx="2622" dy="2657" grid="1" gridSize="10" guides="1" tooltips="1" connect="1" arrows="1" fold="1" page="1" pageScale="1" pageWidth="1200" pageHeight="1920" math="0" shadow="0">
      <root>
        <mxCell id="NG4wlASpmwJc0w42Dy1q-0" />
        <mxCell id="NG4wlASpmwJc0w42Dy1q-1" parent="NG4wlASpmwJc0w42Dy1q-0" />
        <mxCell id="NG4wlASpmwJc0w42Dy1q-2" value="&lt;b&gt;员工免登实现逻辑流程&lt;/b&gt;" style="text;html=1;strokeColor=none;fillColor=none;align=left;verticalAlign=middle;whiteSpace=wrap;" parent="NG4wlASpmwJc0w42Dy1q-1" vertex="1">
          <mxGeometry x="-1160" y="-1880" width="240" height="20" as="geometry" />
        </mxCell>
        <mxCell id="NG4wlASpmwJc0w42Dy1q-3" value="" style="edgeStyle=orthogonalEdgeStyle;orthogonalLoop=1;jettySize=auto;html=1;" parent="NG4wlASpmwJc0w42Dy1q-1" source="NG4wlASpmwJc0w42Dy1q-4" target="NG4wlASpmwJc0w42Dy1q-7" edge="1">
          <mxGeometry relative="1" as="geometry" />
        </mxCell>
        <mxCell id="NG4wlASpmwJc0w42Dy1q-4" value="检测&lt;br&gt;open_sync_biz_data" style="whiteSpace=wrap;html=1;" parent="NG4wlASpmwJc0w42Dy1q-1" vertex="1">
          <mxGeometry x="-770" y="1890" width="180" height="120" as="geometry" />
        </mxCell>
        <mxCell id="NG4wlASpmwJc0w42Dy1q-6" value="" style="edgeStyle=orthogonalEdgeStyle;orthogonalLoop=1;jettySize=auto;html=1;" parent="NG4wlASpmwJc0w42Dy1q-1" source="NG4wlASpmwJc0w42Dy1q-7" target="NG4wlASpmwJc0w42Dy1q-19" edge="1">
          <mxGeometry relative="1" as="geometry" />
        </mxCell>
        <mxCell id="s3VayUJUavcY_BZArGYw-1" value="" style="edgeStyle=orthogonalEdgeStyle;rounded=0;orthogonalLoop=1;jettySize=auto;html=1;" parent="NG4wlASpmwJc0w42Dy1q-1" source="NG4wlASpmwJc0w42Dy1q-7" target="s3VayUJUavcY_BZArGYw-0" edge="1">
          <mxGeometry relative="1" as="geometry" />
        </mxCell>
        <mxCell id="NG4wlASpmwJc0w42Dy1q-7" value="biz_type=22" style="rhombus;whiteSpace=wrap;html=1;align=center;" parent="NG4wlASpmwJc0w42Dy1q-1" vertex="1">
          <mxGeometry x="-800" y="2090" width="240" height="120" as="geometry" />
        </mxCell>
        <mxCell id="NG4wlASpmwJc0w42Dy1q-8" value="" style="edgeStyle=orthogonalEdgeStyle;orthogonalLoop=1;jettySize=auto;html=1;dashed=1;exitX=0.383;exitY=0.975;exitDx=0;exitDy=0;exitPerimeter=0;" parent="NG4wlASpmwJc0w42Dy1q-1" source="NG4wlASpmwJc0w42Dy1q-9" target="NG4wlASpmwJc0w42Dy1q-7" edge="1">
          <mxGeometry relative="1" as="geometry">
            <Array as="points">
              <mxPoint x="-864" y="2110" />
              <mxPoint x="-820" y="2110" />
              <mxPoint x="-820" y="2150" />
            </Array>
          </mxGeometry>
        </mxCell>
        <mxCell id="NG4wlASpmwJc0w42Dy1q-9" value="ISV自定义审批" style="shape=document;whiteSpace=wrap;html=1;boundedLbl=1;align=left;" parent="NG4wlASpmwJc0w42Dy1q-1" vertex="1">
          <mxGeometry x="-910" y="2010" width="120" height="80" as="geometry" />
        </mxCell>
        <mxCell id="NG4wlASpmwJc0w42Dy1q-12" value="" style="edgeStyle=orthogonalEdgeStyle;orthogonalLoop=1;jettySize=auto;html=1;" parent="NG4wlASpmwJc0w42Dy1q-1" source="NG4wlASpmwJc0w42Dy1q-14" target="NG4wlASpmwJc0w42Dy1q-21" edge="1">
          <mxGeometry relative="1" as="geometry" />
        </mxCell>
        <mxCell id="NG4wlASpmwJc0w42Dy1q-13" value="" style="edgeStyle=orthogonalEdgeStyle;rounded=0;orthogonalLoop=1;jettySize=auto;html=1;startArrow=none;startFill=0;endArrow=classic;endFill=1;" parent="NG4wlASpmwJc0w42Dy1q-1" source="NG4wlASpmwJc0w42Dy1q-14" target="NG4wlASpmwJc0w42Dy1q-24" edge="1">
          <mxGeometry relative="1" as="geometry" />
        </mxCell>
        <mxCell id="NG4wlASpmwJc0w42Dy1q-14" value="&lt;span&gt;企业是否已开通&lt;/span&gt;" style="rhombus;whiteSpace=wrap;html=1;" parent="NG4wlASpmwJc0w42Dy1q-1" vertex="1">
          <mxGeometry x="-780" y="2490" width="200" height="120" as="geometry" />
        </mxCell>
        <mxCell id="NG4wlASpmwJc0w42Dy1q-15" value="是" style="text;html=1;align=center;verticalAlign=middle;resizable=0;points=[];autosize=1;" parent="NG4wlASpmwJc0w42Dy1q-1" vertex="1">
          <mxGeometry x="-670" y="2240" width="30" height="20" as="geometry" />
        </mxCell>
        <mxCell id="NG4wlASpmwJc0w42Dy1q-16" value="是" style="text;html=1;align=center;verticalAlign=middle;resizable=0;points=[];autosize=1;" parent="NG4wlASpmwJc0w42Dy1q-1" vertex="1">
          <mxGeometry x="-665" y="2630" width="30" height="20" as="geometry" />
        </mxCell>
        <mxCell id="NG4wlASpmwJc0w42Dy1q-17" value="" style="edgeStyle=orthogonalEdgeStyle;orthogonalLoop=1;jettySize=auto;html=1;" parent="NG4wlASpmwJc0w42Dy1q-1" source="NG4wlASpmwJc0w42Dy1q-18" target="NG4wlASpmwJc0w42Dy1q-4" edge="1">
          <mxGeometry relative="1" as="geometry" />
        </mxCell>
        <mxCell id="NG4wlASpmwJc0w42Dy1q-18" value="" style="ellipse;html=1;shape=startState;" parent="NG4wlASpmwJc0w42Dy1q-1" vertex="1">
          <mxGeometry x="-695" y="1820" width="30" height="30" as="geometry" />
        </mxCell>
        <mxCell id="NG4wlASpmwJc0w42Dy1q-19" value="" style="ellipse;html=1;shape=endState;" parent="NG4wlASpmwJc0w42Dy1q-1" vertex="1">
          <mxGeometry x="-495" y="2135" width="30" height="30" as="geometry" />
        </mxCell>
        <mxCell id="NG4wlASpmwJc0w42Dy1q-20" value="否" style="text;html=1;align=center;verticalAlign=middle;resizable=0;points=[];autosize=1;" parent="NG4wlASpmwJc0w42Dy1q-1" vertex="1">
          <mxGeometry x="-545" y="2120" width="30" height="20" as="geometry" />
        </mxCell>
        <mxCell id="NG4wlASpmwJc0w42Dy1q-21" value="" style="ellipse;html=1;shape=endState;" parent="NG4wlASpmwJc0w42Dy1q-1" vertex="1">
          <mxGeometry x="-495" y="2535" width="30" height="30" as="geometry" />
        </mxCell>
        <mxCell id="NG4wlASpmwJc0w42Dy1q-22" value="否" style="text;html=1;align=center;verticalAlign=middle;resizable=0;points=[];autosize=1;" parent="NG4wlASpmwJc0w42Dy1q-1" vertex="1">
          <mxGeometry x="-550" y="2520" width="30" height="20" as="geometry" />
        </mxCell>
        <mxCell id="NG4wlASpmwJc0w42Dy1q-23" value="" style="edgeStyle=orthogonalEdgeStyle;rounded=0;orthogonalLoop=1;jettySize=auto;html=1;" parent="NG4wlASpmwJc0w42Dy1q-1" source="NG4wlASpmwJc0w42Dy1q-24" target="NG4wlASpmwJc0w42Dy1q-26" edge="1">
          <mxGeometry relative="1" as="geometry" />
        </mxCell>
        <mxCell id="NG4wlASpmwJc0w42Dy1q-24" value="推送出差申请单给飞巴" style="whiteSpace=wrap;html=1;" parent="NG4wlASpmwJc0w42Dy1q-1" vertex="1">
          <mxGeometry x="-790" y="2700" width="220" height="120" as="geometry" />
        </mxCell>
        <mxCell id="NG4wlASpmwJc0w42Dy1q-25" value="" style="edgeStyle=orthogonalEdgeStyle;rounded=0;orthogonalLoop=1;jettySize=auto;html=1;" parent="NG4wlASpmwJc0w42Dy1q-1" source="NG4wlASpmwJc0w42Dy1q-26" target="NG4wlASpmwJc0w42Dy1q-28" edge="1">
          <mxGeometry relative="1" as="geometry" />
        </mxCell>
        <mxCell id="NG4wlASpmwJc0w42Dy1q-26" value="出差申请单批量同步接口" style="whiteSpace=wrap;html=1;" parent="NG4wlASpmwJc0w42Dy1q-1" vertex="1">
          <mxGeometry x="-400" y="2700" width="220" height="120" as="geometry" />
        </mxCell>
        <mxCell id="NG4wlASpmwJc0w42Dy1q-27" value="" style="edgeStyle=orthogonalEdgeStyle;rounded=0;orthogonalLoop=1;jettySize=auto;html=1;" parent="NG4wlASpmwJc0w42Dy1q-1" source="NG4wlASpmwJc0w42Dy1q-28" target="NG4wlASpmwJc0w42Dy1q-29" edge="1">
          <mxGeometry relative="1" as="geometry" />
        </mxCell>
        <mxCell id="NG4wlASpmwJc0w42Dy1q-28" value="创建或同步出差申请单" style="whiteSpace=wrap;html=1;" parent="NG4wlASpmwJc0w42Dy1q-1" vertex="1">
          <mxGeometry x="-400" y="2935" width="220" height="120" as="geometry" />
        </mxCell>
        <mxCell id="NG4wlASpmwJc0w42Dy1q-29" value="" style="ellipse;html=1;shape=endState;" parent="NG4wlASpmwJc0w42Dy1q-1" vertex="1">
          <mxGeometry x="-305" y="3115" width="30" height="30" as="geometry" />
        </mxCell>
        <mxCell id="X6eZ_0H4qt60YOZBjFF5-4" value="" style="edgeStyle=orthogonalEdgeStyle;rounded=0;orthogonalLoop=1;jettySize=auto;html=1;startArrow=none;startFill=0;endArrow=classic;endFill=1;" parent="NG4wlASpmwJc0w42Dy1q-1" source="X6eZ_0H4qt60YOZBjFF5-0" target="X6eZ_0H4qt60YOZBjFF5-3" edge="1">
          <mxGeometry relative="1" as="geometry" />
        </mxCell>
        <mxCell id="X6eZ_0H4qt60YOZBjFF5-0" value="员工登录钉钉" style="whiteSpace=wrap;html=1;" parent="NG4wlASpmwJc0w42Dy1q-1" vertex="1">
          <mxGeometry x="-1110" y="-1700" width="180" height="120" as="geometry" />
        </mxCell>
        <mxCell id="sJpaci3Rp8NE7HWjpgzs-0" value="" style="edgeStyle=orthogonalEdgeStyle;rounded=0;orthogonalLoop=1;jettySize=auto;html=1;" edge="1" parent="NG4wlASpmwJc0w42Dy1q-1" source="X6eZ_0H4qt60YOZBjFF5-2" target="X6eZ_0H4qt60YOZBjFF5-0">
          <mxGeometry relative="1" as="geometry" />
        </mxCell>
        <mxCell id="X6eZ_0H4qt60YOZBjFF5-2" value="" style="ellipse;html=1;shape=startState;" parent="NG4wlASpmwJc0w42Dy1q-1" vertex="1">
          <mxGeometry x="-1035" y="-1760" width="30" height="30" as="geometry" />
        </mxCell>
        <mxCell id="sJpaci3Rp8NE7HWjpgzs-6" value="" style="edgeStyle=orthogonalEdgeStyle;rounded=0;orthogonalLoop=1;jettySize=auto;html=1;" edge="1" parent="NG4wlASpmwJc0w42Dy1q-1" source="X6eZ_0H4qt60YOZBjFF5-3" target="sJpaci3Rp8NE7HWjpgzs-5">
          <mxGeometry relative="1" as="geometry" />
        </mxCell>
        <mxCell id="X6eZ_0H4qt60YOZBjFF5-3" value="员工登录" style="whiteSpace=wrap;html=1;" parent="NG4wlASpmwJc0w42Dy1q-1" vertex="1">
          <mxGeometry x="-730" y="-1700" width="180" height="120" as="geometry" />
        </mxCell>
        <mxCell id="s3VayUJUavcY_BZArGYw-2" value="" style="edgeStyle=orthogonalEdgeStyle;rounded=0;orthogonalLoop=1;jettySize=auto;html=1;" parent="NG4wlASpmwJc0w42Dy1q-1" source="s3VayUJUavcY_BZArGYw-0" target="NG4wlASpmwJc0w42Dy1q-14" edge="1">
          <mxGeometry relative="1" as="geometry" />
        </mxCell>
        <mxCell id="s3VayUJUavcY_BZArGYw-0" value="Redis中取当前企业开通状态" style="shape=cylinder3;whiteSpace=wrap;html=1;boundedLbl=1;backgroundOutline=1;size=15;strokeColor=#000000;strokeWidth=1;fillColor=#FFFFFF;" parent="NG4wlASpmwJc0w42Dy1q-1" vertex="1">
          <mxGeometry x="-785" y="2320" width="210" height="80" as="geometry" />
        </mxCell>
        <mxCell id="s3VayUJUavcY_BZArGYw-14" value="" style="edgeStyle=orthogonalEdgeStyle;rounded=0;orthogonalLoop=1;jettySize=auto;html=1;" parent="NG4wlASpmwJc0w42Dy1q-1" source="s3VayUJUavcY_BZArGYw-9" target="s3VayUJUavcY_BZArGYw-13" edge="1">
          <mxGeometry relative="1" as="geometry" />
        </mxCell>
        <mxCell id="s3VayUJUavcY_BZArGYw-9" value="推送出差申请单给钉钉" style="whiteSpace=wrap;html=1;" parent="NG4wlASpmwJc0w42Dy1q-1" vertex="1">
          <mxGeometry x="-770" y="1180" width="180" height="120" as="geometry" />
        </mxCell>
        <mxCell id="s3VayUJUavcY_BZArGYw-16" value="" style="edgeStyle=orthogonalEdgeStyle;rounded=0;orthogonalLoop=1;jettySize=auto;html=1;" parent="NG4wlASpmwJc0w42Dy1q-1" source="s3VayUJUavcY_BZArGYw-13" target="s3VayUJUavcY_BZArGYw-15" edge="1">
          <mxGeometry relative="1" as="geometry" />
        </mxCell>
        <mxCell id="s3VayUJUavcY_BZArGYw-13" value="创建出差申请单" style="whiteSpace=wrap;html=1;" parent="NG4wlASpmwJc0w42Dy1q-1" vertex="1">
          <mxGeometry x="-1160" y="1180" width="180" height="120" as="geometry" />
        </mxCell>
        <mxCell id="s3VayUJUavcY_BZArGYw-18" value="" style="edgeStyle=orthogonalEdgeStyle;rounded=0;orthogonalLoop=1;jettySize=auto;html=1;" parent="NG4wlASpmwJc0w42Dy1q-1" source="s3VayUJUavcY_BZArGYw-15" target="s3VayUJUavcY_BZArGYw-17" edge="1">
          <mxGeometry relative="1" as="geometry" />
        </mxCell>
        <mxCell id="s3VayUJUavcY_BZArGYw-15" value="出差申请单被流转完成" style="whiteSpace=wrap;html=1;" parent="NG4wlASpmwJc0w42Dy1q-1" vertex="1">
          <mxGeometry x="-1160" y="1370" width="180" height="120" as="geometry" />
        </mxCell>
        <mxCell id="s3VayUJUavcY_BZArGYw-20" value="" style="edgeStyle=orthogonalEdgeStyle;rounded=0;orthogonalLoop=1;jettySize=auto;html=1;" parent="NG4wlASpmwJc0w42Dy1q-1" source="s3VayUJUavcY_BZArGYw-17" target="s3VayUJUavcY_BZArGYw-19" edge="1">
          <mxGeometry relative="1" as="geometry" />
        </mxCell>
        <mxCell id="s3VayUJUavcY_BZArGYw-17" value="推送给聚石塔RDS" style="whiteSpace=wrap;html=1;" parent="NG4wlASpmwJc0w42Dy1q-1" vertex="1">
          <mxGeometry x="-1160" y="1580" width="180" height="120" as="geometry" />
        </mxCell>
        <mxCell id="s3VayUJUavcY_BZArGYw-19" value="存入&lt;br&gt;open_sync_biz_data" style="whiteSpace=wrap;html=1;" parent="NG4wlASpmwJc0w42Dy1q-1" vertex="1">
          <mxGeometry x="-770" y="1580" width="180" height="120" as="geometry" />
        </mxCell>
        <mxCell id="qPnB5fY4LTsV6yTti_YB-0" value="钉钉系统" style="rounded=0;whiteSpace=wrap;html=1;opacity=5;fillColor=#B3B3B3;" parent="NG4wlASpmwJc0w42Dy1q-1" vertex="1">
          <mxGeometry x="-1160" y="-1840" width="280" height="50" as="geometry" />
        </mxCell>
        <mxCell id="qPnB5fY4LTsV6yTti_YB-1" value="飞巴系统" style="rounded=0;whiteSpace=wrap;html=1;opacity=5;fillColor=#B3B3B3;" parent="NG4wlASpmwJc0w42Dy1q-1" vertex="1">
          <mxGeometry x="-400" y="-1840" width="280" height="50" as="geometry" />
        </mxCell>
        <mxCell id="qPnB5fY4LTsV6yTti_YB-2" value="飞巴H5" style="rounded=0;whiteSpace=wrap;html=1;opacity=5;fillColor=#B3B3B3;" parent="NG4wlASpmwJc0w42Dy1q-1" vertex="1">
          <mxGeometry x="-880" y="-1840" width="480" height="50" as="geometry" />
        </mxCell>
        <mxCell id="sJpaci3Rp8NE7HWjpgzs-4" value="进入" style="text;html=1;align=center;verticalAlign=middle;resizable=0;points=[];autosize=1;" vertex="1" parent="NG4wlASpmwJc0w42Dy1q-1">
          <mxGeometry x="-870" y="-1670" width="40" height="20" as="geometry" />
        </mxCell>
        <mxCell id="sJpaci3Rp8NE7HWjpgzs-8" value="" style="edgeStyle=orthogonalEdgeStyle;rounded=0;orthogonalLoop=1;jettySize=auto;html=1;" edge="1" parent="NG4wlASpmwJc0w42Dy1q-1" source="sJpaci3Rp8NE7HWjpgzs-5" target="sJpaci3Rp8NE7HWjpgzs-7">
          <mxGeometry relative="1" as="geometry" />
        </mxCell>
        <mxCell id="sJpaci3Rp8NE7HWjpgzs-5" value="获取微应用免登授权码" style="whiteSpace=wrap;html=1;" vertex="1" parent="NG4wlASpmwJc0w42Dy1q-1">
          <mxGeometry x="-730" y="-1500" width="180" height="120" as="geometry" />
        </mxCell>
        <mxCell id="sJpaci3Rp8NE7HWjpgzs-10" value="" style="edgeStyle=orthogonalEdgeStyle;rounded=0;orthogonalLoop=1;jettySize=auto;html=1;" edge="1" parent="NG4wlASpmwJc0w42Dy1q-1" source="sJpaci3Rp8NE7HWjpgzs-7" target="sJpaci3Rp8NE7HWjpgzs-9">
          <mxGeometry relative="1" as="geometry" />
        </mxCell>
        <mxCell id="sJpaci3Rp8NE7HWjpgzs-7" value="获取微应用免登授权码" style="whiteSpace=wrap;html=1;" vertex="1" parent="NG4wlASpmwJc0w42Dy1q-1">
          <mxGeometry x="-1110" y="-1500" width="180" height="120" as="geometry" />
        </mxCell>
        <mxCell id="sJpaci3Rp8NE7HWjpgzs-12" value="" style="edgeStyle=orthogonalEdgeStyle;rounded=0;orthogonalLoop=1;jettySize=auto;html=1;" edge="1" parent="NG4wlASpmwJc0w42Dy1q-1" source="sJpaci3Rp8NE7HWjpgzs-9" target="sJpaci3Rp8NE7HWjpgzs-11">
          <mxGeometry relative="1" as="geometry" />
        </mxCell>
        <mxCell id="sJpaci3Rp8NE7HWjpgzs-9" value="返回微应用免登授权码" style="whiteSpace=wrap;html=1;" vertex="1" parent="NG4wlASpmwJc0w42Dy1q-1">
          <mxGeometry x="-1110" y="-1300" width="180" height="120" as="geometry" />
        </mxCell>
        <mxCell id="sJpaci3Rp8NE7HWjpgzs-14" value="" style="edgeStyle=orthogonalEdgeStyle;rounded=0;orthogonalLoop=1;jettySize=auto;html=1;" edge="1" parent="NG4wlASpmwJc0w42Dy1q-1" source="sJpaci3Rp8NE7HWjpgzs-11" target="sJpaci3Rp8NE7HWjpgzs-13">
          <mxGeometry relative="1" as="geometry" />
        </mxCell>
        <mxCell id="sJpaci3Rp8NE7HWjpgzs-11" value="返回微应用免登授权码" style="whiteSpace=wrap;html=1;" vertex="1" parent="NG4wlASpmwJc0w42Dy1q-1">
          <mxGeometry x="-730" y="-1300" width="180" height="120" as="geometry" />
        </mxCell>
        <mxCell id="sJpaci3Rp8NE7HWjpgzs-16" value="" style="edgeStyle=orthogonalEdgeStyle;rounded=0;orthogonalLoop=1;jettySize=auto;html=1;" edge="1" parent="NG4wlASpmwJc0w42Dy1q-1" source="sJpaci3Rp8NE7HWjpgzs-13" target="sJpaci3Rp8NE7HWjpgzs-15">
          <mxGeometry relative="1" as="geometry" />
        </mxCell>
        <mxCell id="sJpaci3Rp8NE7HWjpgzs-13" value="获取企业凭证access_token" style="whiteSpace=wrap;html=1;" vertex="1" parent="NG4wlASpmwJc0w42Dy1q-1">
          <mxGeometry x="-730" y="-1100" width="180" height="120" as="geometry" />
        </mxCell>
        <mxCell id="sJpaci3Rp8NE7HWjpgzs-18" value="" style="edgeStyle=orthogonalEdgeStyle;rounded=0;orthogonalLoop=1;jettySize=auto;html=1;" edge="1" parent="NG4wlASpmwJc0w42Dy1q-1" source="sJpaci3Rp8NE7HWjpgzs-15" target="sJpaci3Rp8NE7HWjpgzs-17">
          <mxGeometry relative="1" as="geometry" />
        </mxCell>
        <mxCell id="sJpaci3Rp8NE7HWjpgzs-15" value="获取企业凭证access_token" style="whiteSpace=wrap;html=1;" vertex="1" parent="NG4wlASpmwJc0w42Dy1q-1">
          <mxGeometry x="-1110" y="-1100" width="180" height="120" as="geometry" />
        </mxCell>
        <mxCell id="sJpaci3Rp8NE7HWjpgzs-20" value="" style="edgeStyle=orthogonalEdgeStyle;rounded=0;orthogonalLoop=1;jettySize=auto;html=1;" edge="1" parent="NG4wlASpmwJc0w42Dy1q-1" source="sJpaci3Rp8NE7HWjpgzs-17" target="sJpaci3Rp8NE7HWjpgzs-19">
          <mxGeometry relative="1" as="geometry" />
        </mxCell>
        <mxCell id="sJpaci3Rp8NE7HWjpgzs-17" value="返回企业凭证access_token" style="whiteSpace=wrap;html=1;" vertex="1" parent="NG4wlASpmwJc0w42Dy1q-1">
          <mxGeometry x="-1110" y="-900" width="180" height="120" as="geometry" />
        </mxCell>
        <mxCell id="sJpaci3Rp8NE7HWjpgzs-22" value="" style="edgeStyle=orthogonalEdgeStyle;rounded=0;orthogonalLoop=1;jettySize=auto;html=1;" edge="1" parent="NG4wlASpmwJc0w42Dy1q-1" source="sJpaci3Rp8NE7HWjpgzs-19" target="sJpaci3Rp8NE7HWjpgzs-21">
          <mxGeometry relative="1" as="geometry" />
        </mxCell>
        <mxCell id="sJpaci3Rp8NE7HWjpgzs-19" value="返回企业凭证access_token" style="whiteSpace=wrap;html=1;" vertex="1" parent="NG4wlASpmwJc0w42Dy1q-1">
          <mxGeometry x="-725" y="-900" width="180" height="120" as="geometry" />
        </mxCell>
        <mxCell id="sJpaci3Rp8NE7HWjpgzs-24" value="" style="edgeStyle=orthogonalEdgeStyle;rounded=0;orthogonalLoop=1;jettySize=auto;html=1;" edge="1" parent="NG4wlASpmwJc0w42Dy1q-1" source="sJpaci3Rp8NE7HWjpgzs-21" target="sJpaci3Rp8NE7HWjpgzs-23">
          <mxGeometry relative="1" as="geometry" />
        </mxCell>
        <mxCell id="sJpaci3Rp8NE7HWjpgzs-21" value="获取用户userid" style="whiteSpace=wrap;html=1;" vertex="1" parent="NG4wlASpmwJc0w42Dy1q-1">
          <mxGeometry x="-725" y="-700" width="180" height="120" as="geometry" />
        </mxCell>
        <mxCell id="sJpaci3Rp8NE7HWjpgzs-26" value="" style="edgeStyle=orthogonalEdgeStyle;rounded=0;orthogonalLoop=1;jettySize=auto;html=1;" edge="1" parent="NG4wlASpmwJc0w42Dy1q-1" source="sJpaci3Rp8NE7HWjpgzs-23" target="sJpaci3Rp8NE7HWjpgzs-25">
          <mxGeometry relative="1" as="geometry" />
        </mxCell>
        <mxCell id="sJpaci3Rp8NE7HWjpgzs-23" value="获取用户userid" style="whiteSpace=wrap;html=1;" vertex="1" parent="NG4wlASpmwJc0w42Dy1q-1">
          <mxGeometry x="-1110" y="-700" width="180" height="120" as="geometry" />
        </mxCell>
        <mxCell id="sJpaci3Rp8NE7HWjpgzs-28" value="" style="edgeStyle=orthogonalEdgeStyle;rounded=0;orthogonalLoop=1;jettySize=auto;html=1;" edge="1" parent="NG4wlASpmwJc0w42Dy1q-1" source="sJpaci3Rp8NE7HWjpgzs-25" target="sJpaci3Rp8NE7HWjpgzs-27">
          <mxGeometry relative="1" as="geometry" />
        </mxCell>
        <mxCell id="sJpaci3Rp8NE7HWjpgzs-25" value="返回用户userid" style="whiteSpace=wrap;html=1;" vertex="1" parent="NG4wlASpmwJc0w42Dy1q-1">
          <mxGeometry x="-1110" y="-500" width="180" height="120" as="geometry" />
        </mxCell>
        <mxCell id="sJpaci3Rp8NE7HWjpgzs-27" value="返回用户userid" style="whiteSpace=wrap;html=1;" vertex="1" parent="NG4wlASpmwJc0w42Dy1q-1">
          <mxGeometry x="-725" y="-500" width="180" height="120" as="geometry" />
        </mxCell>
      </root>
    </mxGraphModel>
  </diagram>
  <diagram name="Copy of sign_login_001" id="xuyhLoc5MA1M6K2eX-8x">
    <mxGraphModel dx="2622" dy="2657" grid="1" gridSize="10" guides="1" tooltips="1" connect="1" arrows="1" fold="1" page="1" pageScale="1" pageWidth="1200" pageHeight="1920" math="0" shadow="0">
      <root>
        <mxCell id="femyCBMzblsFJVYqOuFK-0" />
        <mxCell id="femyCBMzblsFJVYqOuFK-1" parent="femyCBMzblsFJVYqOuFK-0" />
        <mxCell id="femyCBMzblsFJVYqOuFK-2" value="&lt;b&gt;员工免登实现逻辑流程&lt;/b&gt;" style="text;html=1;strokeColor=none;fillColor=none;align=left;verticalAlign=middle;whiteSpace=wrap;" vertex="1" parent="femyCBMzblsFJVYqOuFK-1">
          <mxGeometry x="-1160" y="-1880" width="240" height="20" as="geometry" />
        </mxCell>
        <mxCell id="femyCBMzblsFJVYqOuFK-3" value="" style="edgeStyle=orthogonalEdgeStyle;orthogonalLoop=1;jettySize=auto;html=1;" edge="1" parent="femyCBMzblsFJVYqOuFK-1" source="femyCBMzblsFJVYqOuFK-4" target="femyCBMzblsFJVYqOuFK-7">
          <mxGeometry relative="1" as="geometry" />
        </mxCell>
        <mxCell id="femyCBMzblsFJVYqOuFK-4" value="检测&lt;br&gt;open_sync_biz_data" style="whiteSpace=wrap;html=1;" vertex="1" parent="femyCBMzblsFJVYqOuFK-1">
          <mxGeometry x="-730" y="-620" width="180" height="120" as="geometry" />
        </mxCell>
        <mxCell id="femyCBMzblsFJVYqOuFK-5" value="" style="edgeStyle=orthogonalEdgeStyle;orthogonalLoop=1;jettySize=auto;html=1;" edge="1" parent="femyCBMzblsFJVYqOuFK-1" source="femyCBMzblsFJVYqOuFK-7" target="femyCBMzblsFJVYqOuFK-17">
          <mxGeometry relative="1" as="geometry" />
        </mxCell>
        <mxCell id="femyCBMzblsFJVYqOuFK-6" value="" style="edgeStyle=orthogonalEdgeStyle;rounded=0;orthogonalLoop=1;jettySize=auto;html=1;" edge="1" parent="femyCBMzblsFJVYqOuFK-1" source="femyCBMzblsFJVYqOuFK-7" target="femyCBMzblsFJVYqOuFK-35">
          <mxGeometry relative="1" as="geometry" />
        </mxCell>
        <mxCell id="femyCBMzblsFJVYqOuFK-7" value="biz_type=22" style="rhombus;whiteSpace=wrap;html=1;align=center;" vertex="1" parent="femyCBMzblsFJVYqOuFK-1">
          <mxGeometry x="-760" y="-420" width="240" height="120" as="geometry" />
        </mxCell>
        <mxCell id="femyCBMzblsFJVYqOuFK-8" value="" style="edgeStyle=orthogonalEdgeStyle;orthogonalLoop=1;jettySize=auto;html=1;dashed=1;exitX=0.383;exitY=0.975;exitDx=0;exitDy=0;exitPerimeter=0;" edge="1" parent="femyCBMzblsFJVYqOuFK-1" source="femyCBMzblsFJVYqOuFK-9" target="femyCBMzblsFJVYqOuFK-7">
          <mxGeometry relative="1" as="geometry">
            <Array as="points">
              <mxPoint x="-824" y="-400" />
              <mxPoint x="-780" y="-400" />
              <mxPoint x="-780" y="-360" />
            </Array>
          </mxGeometry>
        </mxCell>
        <mxCell id="femyCBMzblsFJVYqOuFK-9" value="ISV自定义审批" style="shape=document;whiteSpace=wrap;html=1;boundedLbl=1;align=left;" vertex="1" parent="femyCBMzblsFJVYqOuFK-1">
          <mxGeometry x="-870" y="-500" width="120" height="80" as="geometry" />
        </mxCell>
        <mxCell id="femyCBMzblsFJVYqOuFK-10" value="" style="edgeStyle=orthogonalEdgeStyle;orthogonalLoop=1;jettySize=auto;html=1;" edge="1" parent="femyCBMzblsFJVYqOuFK-1" source="femyCBMzblsFJVYqOuFK-12" target="femyCBMzblsFJVYqOuFK-19">
          <mxGeometry relative="1" as="geometry" />
        </mxCell>
        <mxCell id="femyCBMzblsFJVYqOuFK-11" value="" style="edgeStyle=orthogonalEdgeStyle;rounded=0;orthogonalLoop=1;jettySize=auto;html=1;startArrow=none;startFill=0;endArrow=classic;endFill=1;" edge="1" parent="femyCBMzblsFJVYqOuFK-1" source="femyCBMzblsFJVYqOuFK-12" target="femyCBMzblsFJVYqOuFK-22">
          <mxGeometry relative="1" as="geometry" />
        </mxCell>
        <mxCell id="femyCBMzblsFJVYqOuFK-12" value="&lt;span&gt;企业是否已开通&lt;/span&gt;" style="rhombus;whiteSpace=wrap;html=1;" vertex="1" parent="femyCBMzblsFJVYqOuFK-1">
          <mxGeometry x="-740" y="-20" width="200" height="120" as="geometry" />
        </mxCell>
        <mxCell id="femyCBMzblsFJVYqOuFK-13" value="是" style="text;html=1;align=center;verticalAlign=middle;resizable=0;points=[];autosize=1;" vertex="1" parent="femyCBMzblsFJVYqOuFK-1">
          <mxGeometry x="-630" y="-270" width="30" height="20" as="geometry" />
        </mxCell>
        <mxCell id="femyCBMzblsFJVYqOuFK-14" value="是" style="text;html=1;align=center;verticalAlign=middle;resizable=0;points=[];autosize=1;" vertex="1" parent="femyCBMzblsFJVYqOuFK-1">
          <mxGeometry x="-625" y="120" width="30" height="20" as="geometry" />
        </mxCell>
        <mxCell id="femyCBMzblsFJVYqOuFK-15" value="" style="edgeStyle=orthogonalEdgeStyle;orthogonalLoop=1;jettySize=auto;html=1;" edge="1" parent="femyCBMzblsFJVYqOuFK-1" source="femyCBMzblsFJVYqOuFK-16" target="femyCBMzblsFJVYqOuFK-4">
          <mxGeometry relative="1" as="geometry" />
        </mxCell>
        <mxCell id="femyCBMzblsFJVYqOuFK-16" value="" style="ellipse;html=1;shape=startState;" vertex="1" parent="femyCBMzblsFJVYqOuFK-1">
          <mxGeometry x="-655" y="-690" width="30" height="30" as="geometry" />
        </mxCell>
        <mxCell id="femyCBMzblsFJVYqOuFK-17" value="" style="ellipse;html=1;shape=endState;" vertex="1" parent="femyCBMzblsFJVYqOuFK-1">
          <mxGeometry x="-455" y="-375" width="30" height="30" as="geometry" />
        </mxCell>
        <mxCell id="femyCBMzblsFJVYqOuFK-18" value="否" style="text;html=1;align=center;verticalAlign=middle;resizable=0;points=[];autosize=1;" vertex="1" parent="femyCBMzblsFJVYqOuFK-1">
          <mxGeometry x="-505" y="-390" width="30" height="20" as="geometry" />
        </mxCell>
        <mxCell id="femyCBMzblsFJVYqOuFK-19" value="" style="ellipse;html=1;shape=endState;" vertex="1" parent="femyCBMzblsFJVYqOuFK-1">
          <mxGeometry x="-455" y="25" width="30" height="30" as="geometry" />
        </mxCell>
        <mxCell id="femyCBMzblsFJVYqOuFK-20" value="否" style="text;html=1;align=center;verticalAlign=middle;resizable=0;points=[];autosize=1;" vertex="1" parent="femyCBMzblsFJVYqOuFK-1">
          <mxGeometry x="-510" y="10" width="30" height="20" as="geometry" />
        </mxCell>
        <mxCell id="femyCBMzblsFJVYqOuFK-21" value="" style="edgeStyle=orthogonalEdgeStyle;rounded=0;orthogonalLoop=1;jettySize=auto;html=1;" edge="1" parent="femyCBMzblsFJVYqOuFK-1" source="femyCBMzblsFJVYqOuFK-22" target="femyCBMzblsFJVYqOuFK-24">
          <mxGeometry relative="1" as="geometry" />
        </mxCell>
        <mxCell id="femyCBMzblsFJVYqOuFK-22" value="推送出差申请单给飞巴" style="whiteSpace=wrap;html=1;" vertex="1" parent="femyCBMzblsFJVYqOuFK-1">
          <mxGeometry x="-750" y="190" width="220" height="120" as="geometry" />
        </mxCell>
        <mxCell id="femyCBMzblsFJVYqOuFK-23" value="" style="edgeStyle=orthogonalEdgeStyle;rounded=0;orthogonalLoop=1;jettySize=auto;html=1;" edge="1" parent="femyCBMzblsFJVYqOuFK-1" source="femyCBMzblsFJVYqOuFK-24" target="femyCBMzblsFJVYqOuFK-26">
          <mxGeometry relative="1" as="geometry" />
        </mxCell>
        <mxCell id="femyCBMzblsFJVYqOuFK-24" value="出差申请单批量同步接口" style="whiteSpace=wrap;html=1;" vertex="1" parent="femyCBMzblsFJVYqOuFK-1">
          <mxGeometry x="-360" y="190" width="220" height="120" as="geometry" />
        </mxCell>
        <mxCell id="femyCBMzblsFJVYqOuFK-25" value="" style="edgeStyle=orthogonalEdgeStyle;rounded=0;orthogonalLoop=1;jettySize=auto;html=1;" edge="1" parent="femyCBMzblsFJVYqOuFK-1" source="femyCBMzblsFJVYqOuFK-26" target="femyCBMzblsFJVYqOuFK-27">
          <mxGeometry relative="1" as="geometry" />
        </mxCell>
        <mxCell id="femyCBMzblsFJVYqOuFK-26" value="创建或同步出差申请单" style="whiteSpace=wrap;html=1;" vertex="1" parent="femyCBMzblsFJVYqOuFK-1">
          <mxGeometry x="-360" y="425" width="220" height="120" as="geometry" />
        </mxCell>
        <mxCell id="femyCBMzblsFJVYqOuFK-27" value="" style="ellipse;html=1;shape=endState;" vertex="1" parent="femyCBMzblsFJVYqOuFK-1">
          <mxGeometry x="-265" y="605" width="30" height="30" as="geometry" />
        </mxCell>
        <mxCell id="femyCBMzblsFJVYqOuFK-28" value="" style="edgeStyle=orthogonalEdgeStyle;rounded=0;orthogonalLoop=1;jettySize=auto;html=1;startArrow=none;startFill=0;endArrow=classic;endFill=1;" edge="1" parent="femyCBMzblsFJVYqOuFK-1" source="femyCBMzblsFJVYqOuFK-29" target="femyCBMzblsFJVYqOuFK-33">
          <mxGeometry relative="1" as="geometry" />
        </mxCell>
        <mxCell id="femyCBMzblsFJVYqOuFK-29" value="创建出差申请单" style="whiteSpace=wrap;html=1;" vertex="1" parent="femyCBMzblsFJVYqOuFK-1">
          <mxGeometry x="-320" y="-1700" width="180" height="120" as="geometry" />
        </mxCell>
        <mxCell id="femyCBMzblsFJVYqOuFK-30" value="" style="edgeStyle=orthogonalEdgeStyle;orthogonalLoop=1;jettySize=auto;html=1;" edge="1" parent="femyCBMzblsFJVYqOuFK-1" source="femyCBMzblsFJVYqOuFK-31" target="femyCBMzblsFJVYqOuFK-29">
          <mxGeometry relative="1" as="geometry" />
        </mxCell>
        <mxCell id="femyCBMzblsFJVYqOuFK-31" value="" style="ellipse;html=1;shape=startState;" vertex="1" parent="femyCBMzblsFJVYqOuFK-1">
          <mxGeometry x="-245" y="-1770" width="30" height="30" as="geometry" />
        </mxCell>
        <mxCell id="femyCBMzblsFJVYqOuFK-32" value="" style="edgeStyle=orthogonalEdgeStyle;rounded=0;orthogonalLoop=1;jettySize=auto;html=1;" edge="1" parent="femyCBMzblsFJVYqOuFK-1" source="femyCBMzblsFJVYqOuFK-33" target="femyCBMzblsFJVYqOuFK-36">
          <mxGeometry relative="1" as="geometry" />
        </mxCell>
        <mxCell id="femyCBMzblsFJVYqOuFK-33" value="同步出差申请单" style="whiteSpace=wrap;html=1;" vertex="1" parent="femyCBMzblsFJVYqOuFK-1">
          <mxGeometry x="-730" y="-1700" width="180" height="120" as="geometry" />
        </mxCell>
        <mxCell id="femyCBMzblsFJVYqOuFK-34" value="" style="edgeStyle=orthogonalEdgeStyle;rounded=0;orthogonalLoop=1;jettySize=auto;html=1;" edge="1" parent="femyCBMzblsFJVYqOuFK-1" source="femyCBMzblsFJVYqOuFK-35" target="femyCBMzblsFJVYqOuFK-12">
          <mxGeometry relative="1" as="geometry" />
        </mxCell>
        <mxCell id="femyCBMzblsFJVYqOuFK-35" value="Redis中取当前企业开通状态" style="shape=cylinder3;whiteSpace=wrap;html=1;boundedLbl=1;backgroundOutline=1;size=15;strokeColor=#000000;strokeWidth=1;fillColor=#FFFFFF;" vertex="1" parent="femyCBMzblsFJVYqOuFK-1">
          <mxGeometry x="-745" y="-190" width="210" height="80" as="geometry" />
        </mxCell>
        <mxCell id="femyCBMzblsFJVYqOuFK-36" value="" style="shape=cylinder;whiteSpace=wrap;html=1;boundedLbl=1;backgroundOutline=1;rotation=90;" vertex="1" parent="femyCBMzblsFJVYqOuFK-1">
          <mxGeometry x="-670" y="-1595" width="60" height="310" as="geometry" />
        </mxCell>
        <mxCell id="femyCBMzblsFJVYqOuFK-37" value="放入MQ Cluster&lt;br&gt;（要求持久化）" style="text;html=1;align=center;verticalAlign=middle;resizable=0;points=[];autosize=1;" vertex="1" parent="femyCBMzblsFJVYqOuFK-1">
          <mxGeometry x="-690" y="-1455" width="100" height="30" as="geometry" />
        </mxCell>
        <mxCell id="femyCBMzblsFJVYqOuFK-38" value="" style="edgeStyle=orthogonalEdgeStyle;rounded=0;orthogonalLoop=1;jettySize=auto;html=1;entryX=1;entryY=0.5;entryDx=0;entryDy=0;" edge="1" parent="femyCBMzblsFJVYqOuFK-1" source="femyCBMzblsFJVYqOuFK-40" target="femyCBMzblsFJVYqOuFK-36">
          <mxGeometry relative="1" as="geometry" />
        </mxCell>
        <mxCell id="femyCBMzblsFJVYqOuFK-39" value="" style="edgeStyle=orthogonalEdgeStyle;rounded=0;orthogonalLoop=1;jettySize=auto;html=1;" edge="1" parent="femyCBMzblsFJVYqOuFK-1" source="femyCBMzblsFJVYqOuFK-40" target="femyCBMzblsFJVYqOuFK-43">
          <mxGeometry relative="1" as="geometry" />
        </mxCell>
        <mxCell id="femyCBMzblsFJVYqOuFK-40" value="推送出差申请单给钉钉" style="whiteSpace=wrap;html=1;" vertex="1" parent="femyCBMzblsFJVYqOuFK-1">
          <mxGeometry x="-730" y="-1330" width="180" height="120" as="geometry" />
        </mxCell>
        <mxCell id="femyCBMzblsFJVYqOuFK-41" value="拉取" style="text;html=1;align=center;verticalAlign=middle;resizable=0;points=[];autosize=1;" vertex="1" parent="femyCBMzblsFJVYqOuFK-1">
          <mxGeometry x="-640" y="-1380" width="40" height="20" as="geometry" />
        </mxCell>
        <mxCell id="femyCBMzblsFJVYqOuFK-42" value="" style="edgeStyle=orthogonalEdgeStyle;rounded=0;orthogonalLoop=1;jettySize=auto;html=1;" edge="1" parent="femyCBMzblsFJVYqOuFK-1" source="femyCBMzblsFJVYqOuFK-43" target="femyCBMzblsFJVYqOuFK-45">
          <mxGeometry relative="1" as="geometry" />
        </mxCell>
        <mxCell id="femyCBMzblsFJVYqOuFK-43" value="创建出差申请单" style="whiteSpace=wrap;html=1;" vertex="1" parent="femyCBMzblsFJVYqOuFK-1">
          <mxGeometry x="-1120" y="-1330" width="180" height="120" as="geometry" />
        </mxCell>
        <mxCell id="femyCBMzblsFJVYqOuFK-44" value="" style="edgeStyle=orthogonalEdgeStyle;rounded=0;orthogonalLoop=1;jettySize=auto;html=1;" edge="1" parent="femyCBMzblsFJVYqOuFK-1" source="femyCBMzblsFJVYqOuFK-45" target="femyCBMzblsFJVYqOuFK-47">
          <mxGeometry relative="1" as="geometry" />
        </mxCell>
        <mxCell id="femyCBMzblsFJVYqOuFK-45" value="出差申请单被流转完成" style="whiteSpace=wrap;html=1;" vertex="1" parent="femyCBMzblsFJVYqOuFK-1">
          <mxGeometry x="-1120" y="-1140" width="180" height="120" as="geometry" />
        </mxCell>
        <mxCell id="femyCBMzblsFJVYqOuFK-46" value="" style="edgeStyle=orthogonalEdgeStyle;rounded=0;orthogonalLoop=1;jettySize=auto;html=1;" edge="1" parent="femyCBMzblsFJVYqOuFK-1" source="femyCBMzblsFJVYqOuFK-47" target="femyCBMzblsFJVYqOuFK-48">
          <mxGeometry relative="1" as="geometry" />
        </mxCell>
        <mxCell id="femyCBMzblsFJVYqOuFK-47" value="推送给聚石塔RDS" style="whiteSpace=wrap;html=1;" vertex="1" parent="femyCBMzblsFJVYqOuFK-1">
          <mxGeometry x="-1120" y="-930" width="180" height="120" as="geometry" />
        </mxCell>
        <mxCell id="femyCBMzblsFJVYqOuFK-48" value="存入&lt;br&gt;open_sync_biz_data" style="whiteSpace=wrap;html=1;" vertex="1" parent="femyCBMzblsFJVYqOuFK-1">
          <mxGeometry x="-730" y="-930" width="180" height="120" as="geometry" />
        </mxCell>
        <mxCell id="femyCBMzblsFJVYqOuFK-49" value="钉钉系统" style="rounded=0;whiteSpace=wrap;html=1;opacity=5;fillColor=#B3B3B3;" vertex="1" parent="femyCBMzblsFJVYqOuFK-1">
          <mxGeometry x="-1160" y="-1840" width="280" height="50" as="geometry" />
        </mxCell>
        <mxCell id="femyCBMzblsFJVYqOuFK-50" value="飞巴系统" style="rounded=0;whiteSpace=wrap;html=1;opacity=5;fillColor=#B3B3B3;" vertex="1" parent="femyCBMzblsFJVYqOuFK-1">
          <mxGeometry x="-400" y="-1840" width="280" height="50" as="geometry" />
        </mxCell>
        <mxCell id="femyCBMzblsFJVYqOuFK-51" value="飞巴H5" style="rounded=0;whiteSpace=wrap;html=1;opacity=5;fillColor=#B3B3B3;" vertex="1" parent="femyCBMzblsFJVYqOuFK-1">
          <mxGeometry x="-880" y="-1840" width="480" height="50" as="geometry" />
        </mxCell>
      </root>
    </mxGraphModel>
  </diagram>
</mxfile>
